<svg viewBox="0 0 120 119" fill="none" xmlns="http://www.w3.org/2000/svg" class="size-[120px]"><g filter="url(#filter0_d_258_158206)"><g clip-path="url(#clip0_258_158206)"><path d="M60 112.355C90.9279 112.355 116 87.2834 116 56.3555C116 25.4275 90.9279 0.355469 60 0.355469C29.0721 0.355469 4 25.4275 4 56.3555C4 87.2834 29.0721 112.355 60 112.355Z" fill="white"></path><path d="M45.7155 27.3008L46.3056 29.1064H48.2014L46.6662 30.2182L47.2508 32.0239L45.7155 30.9094L44.1831 32.0239L44.7704 30.2182L43.2324 29.1064H45.131L45.7155 27.3008Z" fill="#006636"></path><path d="M74.2761 27.3008L74.8607 29.1064H76.7565L75.224 30.2182L75.8113 32.0239L74.2761 30.9094L72.7409 32.0239L73.3282 30.2182L71.793 29.1064H73.6888L74.2761 27.3008Z" fill="#006636"></path><path d="M66.6412 33.0683C66.5374 33.0683 65.5048 33.0984 64.7864 34.1309C64.7864 34.1309 65.0459 32.735 65.8299 31.9319C65.7152 32.0248 64.7563 32.8361 64.4012 34.0135C64.4012 34.0135 64.3493 33.6065 64.5679 33.2841C64.5679 33.2841 64.4203 33.3551 64.3083 33.5846C64.3083 33.5846 64.3794 32.6476 64.6853 32.2625C64.6853 32.2625 64.9366 31.8145 64.9148 31.3883C64.9148 31.3883 64.8438 31.0441 65.0186 30.9103C65.0186 30.9103 65.1224 30.7846 65.1224 30.5551C65.1224 30.5551 65.4775 30.4076 65.6114 29.681C65.6114 29.681 65.7452 29.4215 65.5403 29.1183C65.5403 29.1183 65.3846 28.1512 65.5403 27.7852C65.5403 27.7852 65.5103 28.2632 65.7179 28.5064L65.8736 28.6402C65.8736 28.6402 66.267 28.2141 66.1031 27.5475L66.0812 27.0586C66.0812 27.0586 66.0102 26.5586 65.737 26.4221C65.737 26.4221 65.5076 26.2035 65.4229 25.9659C65.4229 25.9659 65.0596 25.4878 64.7154 25.4332C64.7154 25.4332 64.322 25.2037 64.2373 24.9961C64.2373 24.9961 63.8603 24.4143 62.948 24.6738C62.948 24.6738 62.6748 24.8841 62.3852 24.7448H61.6559C61.6559 24.7448 61.2406 24.5563 60.7298 24.5563C60.7298 24.5563 60.0305 24.5153 59.8748 24.753C59.8748 24.753 59.8038 24.8568 59.6644 24.712C59.5388 24.5782 59.1236 24.4388 58.5909 24.4935C58.5909 24.4935 58.3314 24.4416 58.1757 24.2203C58.1757 24.2203 57.9653 24.0236 57.6758 24.2121C57.6758 24.2121 57.2906 24.3378 57.1431 24.1192C57.1431 24.1192 56.5803 23.9417 56.4847 23.5565C56.4847 23.5565 55.8073 21.9093 54.0808 22.0049C54.0808 22.0049 53.3597 21.8574 52.5402 23.1823C52.5402 23.1823 51.8326 24.0045 52.2069 24.4634C52.2069 24.4634 52.4445 24.8404 52.8734 24.5891C52.8734 24.5891 53.4252 24.2039 53.8104 24.5044C53.8104 24.5044 54.436 24.9743 54.2666 25.4933C54.2666 25.4933 53.8814 26.3674 54.2748 26.7417C54.2748 26.7417 54.4086 26.8755 54.2338 26.993C54.2338 26.993 54.0863 27.482 54.69 28.0666C54.69 28.0666 54.9195 28.2632 54.7419 28.5036C54.5643 28.7413 54.8129 28.9407 54.8676 28.9817C54.9304 29.0117 54.8676 29.1592 54.8457 29.2958C54.8157 29.4297 54.9796 29.5553 55.0642 29.6291C55.0642 29.6291 55.0642 30.2546 55.4904 30.8365C55.4904 30.8365 55.9903 31.5249 55.9602 32.9618L55.3156 31.3692H55.2527C55.2527 31.3692 55.8783 32.9618 55.8264 33.8987C55.8264 33.8987 55.6488 33.5218 55.5041 33.3879C55.5341 33.4726 55.7144 33.9206 55.6516 34.2511C55.6516 34.2511 55.3292 33.0956 54.4742 32.4291C54.5589 32.5438 55.2527 33.4917 55.2363 34.0435C55.2363 34.0435 54.7883 33.3852 54.0918 33.1803C54.0918 33.1803 54.9249 33.8468 54.9468 34.1801C54.9468 34.1801 54.5835 33.7103 53.9169 33.7239C53.9169 33.7239 54.5206 33.9425 54.6873 34.4014H65.3519C65.3519 34.4014 65.4775 33.9862 66.1113 33.7239C65.9965 33.7321 65.5294 33.8277 65.2781 34.161C65.2754 34.161 65.5349 33.336 66.6412 33.0683ZM53.1193 23.0785C53.1411 22.9227 53.4635 22.7452 53.4635 22.7452C53.316 23.2342 53.1193 23.0785 53.1193 23.0785ZM55.2445 24.5672C55.2445 24.5672 54.4032 24.1903 54.466 23.5866C54.5179 22.9828 54.1437 22.5649 54.1437 22.5649C54.5917 22.6987 54.7064 23.6084 54.7064 23.6084C54.7282 23.9854 55.0069 23.9089 55.0069 23.9089L54.9768 22.9501C55.2145 23.1795 55.2773 23.5019 55.291 23.5319C55.4112 23.7778 55.2445 24.5672 55.2445 24.5672ZM57.1294 33.7758C57.1294 33.7758 56.9956 32.7651 56.8781 32.6504C56.8781 32.6504 56.9928 33.6939 56.8262 33.8987C56.8262 33.8987 56.6705 33.5983 56.6705 33.0874V31.2107C56.6705 31.2107 56.7743 31.0004 56.7961 30.6917C56.7961 30.6917 57.0338 31.1288 57.1294 31.6287C57.1294 31.6287 57.2114 33.4507 57.1294 33.7758ZM62.8086 32.7733C62.6939 32.8989 62.3197 33.8168 62.3197 33.8168C62.1721 33.0683 62.5792 31.391 62.5792 31.391C62.194 32.0576 61.9837 33.306 61.9837 33.306C62.0055 32.6613 61.7542 32.1067 61.6914 31.9838C61.9208 33.1393 61.6203 34.1501 61.6203 34.1501C61.5794 33.5682 61.2652 32.9645 61.2652 32.9645C61.4127 33.9015 61.2024 33.8605 61.2024 33.8605C61.2242 32.746 60.7325 31.6123 60.7325 31.6123C60.9839 32.5602 60.7844 33.8605 60.7844 33.8605L60.7435 32.9426C60.6724 33.5054 60.5659 33.672 60.5659 33.672C60.6588 33.0465 60.3993 32.4537 60.3993 32.4537C60.4512 33.9315 60.107 34.079 60.107 34.079C60.0769 33.642 60.2408 33.3497 60.2736 33.2868C60.0769 33.4016 59.9294 33.743 59.9294 33.743C59.9704 33.1694 60.3364 31.962 60.3856 31.7871C59.8338 32.4755 59.5524 33.9015 59.5524 33.9015C59.4814 32.8279 60.1889 31.7434 60.2736 31.6205C59.3558 32.4127 59.211 33.6939 59.211 33.6939C59.14 32.9946 58.7411 32.216 58.6483 32.0385C59.0853 33.224 58.8859 33.9015 58.8859 33.9015C58.8641 33.5791 58.7302 33.3906 58.7302 33.3906C58.7602 33.784 58.6892 34.0353 58.6892 34.0353C58.6482 33.4617 58.1074 31.9947 58.0445 31.8145C58.2412 32.44 58.2549 33.7704 58.2549 33.9998C58.233 33.6775 57.8287 33.0738 57.8287 33.0738C57.8806 32.6886 57.9626 31.8472 57.9626 31.8472C57.9407 31.3774 58.1101 31.1698 58.1101 31.1698C58.244 31.1179 58.3696 30.7928 58.3696 30.7928C58.4843 30.5551 58.651 30.6589 58.651 30.6589C59.028 30.8065 59.4514 30.5661 59.4514 30.5661C59.8666 30.3475 60.1589 30.5879 60.1589 30.5879C60.5523 30.7846 60.9074 30.6917 60.9074 30.6917C61.0849 30.5988 61.5739 30.6617 61.5739 30.6617C61.929 30.6617 62.1885 30.4104 62.1885 30.4104C62.4071 30.2219 62.5327 30.4104 62.5327 30.4104L62.8141 30.6917C62.8059 30.8256 62.9398 30.9922 62.9398 30.9922C63.0545 31.8909 62.8086 32.7733 62.8086 32.7733ZM63.7347 32.929L63.3577 33.4699C63.3495 32.44 64.1062 30.5852 64.1062 30.5852C64.2127 31.6615 63.7347 32.929 63.7347 32.929Z" fill="#006636"></path><path d="M109.716 75.5039C102.029 95.4672 82.6698 109.626 60.0048 109.626C37.3398 109.626 17.9802 95.47 10.2959 75.5039H25.7929C32.491 87.4715 45.3 95.5628 60.0075 95.5628C74.715 95.5628 87.524 87.4715 94.2222 75.5039H109.716Z" fill="#006536"></path><path d="M111.788 75.5032C103.997 96.5428 83.72 111.581 60.006 111.581C36.2921 111.581 16.0146 96.5428 8.22651 75.5032H7.38515C15.1951 96.999 35.8031 112.359 60.0115 112.359C84.2144 112.359 104.828 96.999 112.638 75.5032H111.788ZM60.0033 0.359375C35.8004 0.359375 15.1896 15.7198 7.37695 37.2156H8.21832C16.0119 16.176 36.2893 1.13791 60.0006 1.13791C83.7118 1.13791 103.995 16.176 111.783 37.2156H112.624C104.82 15.7198 84.2117 0.359375 60.0033 0.359375Z" fill="#006536"></path><path d="M109.708 37.2167H94.2112C87.5131 25.2491 74.7041 17.1578 59.9966 17.1578C45.2891 17.1578 32.4801 25.2491 25.7819 37.2167H10.2822C17.9693 17.2534 37.3316 3.09766 59.9938 3.09766C82.6561 3.09766 102.021 17.2534 109.708 37.2167Z" fill="#006536"></path><path d="M116.005 56.3606C116.005 62.6517 114.962 68.7024 113.047 74.3461H6.95844C5.04078 68.7024 4 62.6517 4 56.3606C4 50.0694 5.04351 44.0187 6.95844 38.375H113.047C114.962 44.0187 116.005 50.0694 116.005 56.3606Z" fill="#006536"></path><path d="M53.4672 22.7422C53.3197 23.2312 53.123 23.0755 53.123 23.0755C53.1449 22.9225 53.4672 22.7422 53.4672 22.7422Z" fill="white"></path><path d="M39.5674 58.3516C39.5674 61.452 41.5725 62.3426 41.5725 62.3426H37.5814C36.4669 62.3426 35.5764 61.4384 35.5764 60.3375V56.3465C35.5764 55.3521 34.9071 54.3414 33.5713 54.3414H31.5662V62.3371H15.5557C11.6384 62.3371 9.63607 59.4579 9.55958 56.5049C9.48583 53.4481 11.4882 50.3477 15.5557 50.3477H23.5678L21.5627 54.3387H15.5529C14.2335 54.3387 13.5643 55.3494 13.5643 56.3438C13.5643 57.3545 14.2335 58.3488 15.5529 58.3488H27.5588V50.3531H33.5686C37.5596 50.3531 39.5647 53.3498 39.5647 56.3492V58.3516H39.5674ZM23.5705 63.9297L25.9744 66.3336L23.5705 68.7375L21.5682 66.7352L19.5631 68.7402L17.1592 66.3363L19.5631 63.9324L21.5682 65.9375L23.5705 63.9297Z" fill="#FCB813"></path><path d="M49.5545 50.3547V62.3469H41.5588C40.4442 62.3469 39.5537 61.4563 39.5537 60.3418V58.3531H45.5498V52.357C45.5498 51.2589 46.454 50.352 47.5549 50.352H49.5572V50.3547H49.5545ZM44.5828 48.7512L42.1925 46.3609L44.5828 43.957L46.5879 45.9621L48.5929 43.957L50.9968 46.3609L48.5929 48.7512L46.5879 46.7461L44.5828 48.7512Z" fill="#FCB813"></path><path d="M72.0462 58.3527L70.0575 62.3438H51.5393C50.4247 62.3438 49.5342 61.4532 49.5342 60.3387V58.35H72.0462V58.3527ZM76.0509 58.3527C76.0509 61.4532 78.0559 62.3574 78.0559 62.3574H74.0513C72.9531 62.3574 72.0626 61.4669 72.0626 60.3523V56.3613C72.0626 55.3506 71.3933 54.3562 70.0575 54.3562H53.5252C53.5252 54.3562 55.5303 52.3512 55.5303 50.3516H70.0575C74.0485 50.3516 76.0536 53.3482 76.0536 56.3613L76.0509 58.3527Z" fill="#FCB813"></path><path d="M84.575 50.3543V62.3465H76.5793C75.4648 62.3465 74.5742 61.456 74.5742 60.3414V58.3527H80.5703V52.3566C80.5703 51.2585 81.4745 50.3516 82.5754 50.3516H84.5777V50.3543H84.575ZM79.1444 63.8872L81.1494 65.8923L83.1545 63.8872L85.5584 66.2774L83.1545 68.6813L81.1494 66.6763L79.1444 68.6813L76.7541 66.2774L79.1444 63.8872Z" fill="#FCB813"></path><path d="M86.5803 62.3426C85.4821 62.3289 84.5615 61.4384 84.5615 60.3375V58.3488H88.5826V52.3527C88.5826 51.2546 89.4731 50.3477 90.5713 50.3477H92.5764V62.3399H86.5803V62.3426ZM92.9752 66.3664L90.5713 68.7703L88.181 66.3664L90.5713 63.9625L92.9752 66.3664Z" fill="#FCB813"></path><path d="M108.44 58.3297C108.44 61.4302 110.445 62.3344 110.445 62.3344H104.435V60.3293C104.435 61.4438 103.545 62.3344 102.43 62.3344H96.4342V58.3434H104.43V56.3383C104.43 55.3275 103.763 54.3332 102.425 54.3332H96.4287C96.4287 54.3332 98.4338 52.3281 98.4338 50.3285H102.425C106.429 50.3285 108.435 53.3252 108.435 56.3383V58.327H108.44V58.3297ZM100.439 48.7277L98.035 46.3375L100.439 43.9336L102.829 46.3375L100.439 48.7277Z" fill="#FCB813"></path><path d="M23.9942 27.3968C22.7267 26.1757 22.7076 24.3072 23.9614 23.0097C25.2044 21.7203 27.0647 21.6684 28.3349 22.8949C29.6079 24.1187 29.6215 25.9845 28.3786 27.2711C27.1248 28.5742 25.259 28.6179 23.9942 27.3968ZM27.7503 23.4987C26.7942 22.5753 25.4147 22.5999 24.5078 23.5369C23.5899 24.4875 23.6173 25.867 24.5761 26.7904C25.5322 27.7137 26.9117 27.6891 27.8295 26.7385C28.7337 25.8042 28.7064 24.422 27.7503 23.4987Z" fill="#FCB813"></path><path d="M32.1929 20.145L33.9138 22.284L33.3156 22.7647L32.9386 22.2949C32.9851 22.7839 32.7501 23.2838 32.2065 23.7208C31.4198 24.3546 30.5784 24.3273 30.0812 23.7127C29.6251 23.1445 29.6087 22.385 30.6467 21.5546L31.6438 20.7542L31.5427 20.6286C31.1056 20.0877 30.5484 20.0221 29.9228 20.522C29.5103 20.8526 29.2098 21.3388 29.1279 21.7895L28.4805 21.5164C28.6061 20.9345 28.994 20.3581 29.5486 19.9101C30.5019 19.1398 31.4143 19.1753 32.1929 20.145ZM32.4141 21.7076L32.018 21.2104L31.0483 21.9917C30.4282 22.4943 30.4473 22.8822 30.6904 23.1827C30.9745 23.5378 31.4389 23.5269 31.917 23.1417C32.3895 22.762 32.5862 22.2403 32.4141 21.7076Z" fill="#FCB813"></path><path d="M34.1535 21.5029L34.077 20.7735C34.5441 20.7954 35.1588 20.6315 35.6423 20.3091C36.2679 19.8994 36.4017 19.536 36.1886 19.2137C35.6314 18.3587 33.7601 20.6424 32.7658 19.129C32.3178 18.4488 32.6156 17.5965 33.5717 16.9682C34.0552 16.6514 34.6889 16.4192 35.156 16.4219L35.2243 17.1567C34.7408 17.1567 34.3174 17.3206 33.9514 17.561C33.3586 17.9489 33.2193 18.3587 33.4159 18.6592C34.0033 19.5552 35.8854 17.2769 36.8552 18.752C37.3059 19.4404 36.9754 20.2845 35.9838 20.9319C35.3664 21.3444 34.6261 21.552 34.1535 21.5029Z" fill="#FCB813"></path><path d="M35.1824 14.3717C35.0349 14.1095 35.1223 13.7871 35.3955 13.6342C35.6686 13.4812 35.9828 13.5686 36.1276 13.8227C36.2805 14.0904 36.1986 14.41 35.9227 14.5684C35.6495 14.7214 35.3299 14.634 35.1824 14.3717ZM35.9992 15.5272L36.704 15.1339L38.933 19.0949L38.2282 19.4882L35.9992 15.5272Z" fill="#FCB813"></path><path d="M39.333 18.2979L39.3576 17.5658C39.8165 17.6532 40.4475 17.5685 40.9747 17.3199C41.6495 17.0003 41.8325 16.6561 41.6686 16.3065C41.2288 15.3859 39.068 17.391 38.2895 15.7574C37.9398 15.0226 38.3496 14.2194 39.3821 13.7277C39.9039 13.4792 40.565 13.3371 41.0239 13.4027L40.9911 14.1402C40.5131 14.0747 40.0705 14.1785 39.6744 14.367C39.0352 14.6674 38.8385 15.0581 38.9942 15.3832C39.4532 16.3502 41.6303 14.3506 42.387 15.9459C42.7394 16.6889 42.2969 17.4784 41.226 17.9865C40.5568 18.3061 39.7974 18.4099 39.333 18.2979Z" fill="#FCB813"></path><path d="M43.834 10.3541L44.6371 10.1055L46.1805 15.1291L49.2264 14.1921L49.4449 14.9051L45.5932 16.0906L43.834 10.3541Z" fill="#FCB813"></path><path d="M48.5782 9.06181C48.5126 8.76952 48.6874 8.48269 48.9934 8.41713C49.2993 8.34883 49.578 8.52366 49.6408 8.80776C49.7091 9.10825 49.5397 9.39235 49.2283 9.46064C48.9251 9.52893 48.6437 9.3541 48.5782 9.06181ZM49.0262 10.4031L49.8156 10.2255L50.81 14.6618L50.0205 14.8394L49.0262 10.4031Z" fill="#FCB813"></path><path d="M55.2919 9.31641L54.0217 14.0969L53.2049 14.2171L50.6152 10.0048L51.4484 9.88187L53.4917 13.2637L54.5106 9.43114L55.2919 9.31641Z" fill="#FCB813"></path><path d="M60.1895 11.6415L56.5782 11.7972C56.712 12.5894 57.3676 13.0948 58.2473 13.0538C58.7663 13.0292 59.1979 12.8326 59.5066 12.4501L59.9764 12.9609C59.594 13.4609 58.993 13.7395 58.2527 13.7723C56.8158 13.8351 55.816 12.909 55.7587 11.5514C55.6986 10.2074 56.6082 9.19666 57.8921 9.13929C59.176 9.08193 60.1321 9.98885 60.195 11.382C60.2004 11.464 60.1922 11.565 60.1895 11.6415ZM56.5509 11.2099L59.4055 11.0843C59.288 10.3249 58.7007 9.80856 57.9222 9.84407C57.1491 9.87685 56.6 10.4369 56.5509 11.2099Z" fill="#FCB813"></path><path d="M60.5615 13.1685L60.9358 12.5348C61.2964 12.8298 61.8919 13.0593 62.471 13.0921C63.2167 13.133 63.5391 12.92 63.5637 12.5348C63.621 11.5159 60.7582 12.2425 60.8565 10.4341C60.9003 9.62279 61.646 9.11196 62.7851 9.17752C63.3643 9.2103 64.0089 9.39879 64.3832 9.68015L64.0035 10.3139C63.6156 10.0271 63.1758 9.90689 62.7387 9.88503C62.0339 9.84679 61.6761 10.0899 61.6542 10.4532C61.5941 11.5213 64.4651 10.8056 64.3668 12.5703C64.3231 13.3925 63.5555 13.8733 62.3672 13.8105C61.6324 13.7613 60.9139 13.4909 60.5615 13.1685Z" fill="#FCB813"></path><path d="M67.5344 14.0442C67.2612 14.2245 66.8842 14.2737 66.5236 14.2272C65.6331 14.1043 65.1933 13.5334 65.3162 12.6264L65.6577 10.1542L64.9092 10.0532L65.0021 9.38117L65.7505 9.48224L65.8844 8.49609L66.6848 8.60536L66.5509 9.59151L67.8184 9.76361L67.7256 10.4356L66.4581 10.2635L66.1248 12.7002C66.0592 13.1837 66.2723 13.4924 66.7121 13.5525C66.9443 13.5853 67.182 13.5388 67.365 13.4268L67.5344 14.0442Z" fill="#FCB813"></path><path d="M68.135 12.0784C68.441 10.7589 69.6156 10.0432 70.9159 10.3465C72.2189 10.6469 72.9538 11.8052 72.6451 13.1246C72.3391 14.444 71.1727 15.1679 69.8697 14.8674C68.5721 14.5669 67.8318 13.4005 68.135 12.0784ZM71.8556 12.9416C72.0742 11.9964 71.5934 11.2452 70.7575 11.0512C69.9216 10.8573 69.1512 11.3244 68.9327 12.2668C68.7142 13.2093 69.2004 13.9769 70.039 14.1708C70.8722 14.3648 71.6371 13.8867 71.8556 12.9416Z" fill="#FCB813"></path><path d="M73.2519 13.3174C73.6999 12.0389 74.9455 11.4571 76.2404 11.9105C76.9943 12.1728 77.5106 12.7082 77.6363 13.4239L76.9233 13.6042C76.8004 13.0879 76.4562 12.7492 75.9973 12.588C75.1723 12.2984 74.3446 12.6754 74.025 13.5878C73.6999 14.5193 74.1151 15.317 74.9401 15.6065C75.399 15.7677 75.8798 15.7158 76.3005 15.3907L76.7485 15.9644C76.2049 16.4479 75.4646 16.549 74.7106 16.2867C73.4103 15.836 72.8039 14.5958 73.2519 13.3174Z" fill="#FCB813"></path><path d="M79.5152 15.9326L78.305 16.326L77.7723 17.4487L77.043 17.1018L79.7637 11.3516L80.4931 11.6985L78.7448 15.389L81.9081 14.3865L82.7905 14.8044L80.2937 15.6977L81.0149 18.9894L80.1189 18.566L79.5152 15.9326Z" fill="#FCB813"></path><path d="M86.6127 15.3789L87.3093 15.8515L84.3591 20.2004L86.9979 21.9896L86.58 22.607L83.25 20.3452L86.6127 15.3789Z" fill="#FCB813"></path><path d="M90.9517 18.4531L91.5936 18.9967L88.2009 23.0151L90.6348 25.0693L90.154 25.6402L87.0781 23.0424L90.9517 18.4531Z" fill="#FCB813"></path><path d="M92.3845 23.6017C93.6738 22.3834 95.5259 22.4598 96.7579 23.7601C97.3835 24.4212 97.6922 25.2107 97.613 26.0275L96.8454 26.0001C96.8891 25.3336 96.6733 24.7791 96.228 24.3065C95.3156 23.3422 93.9306 23.2957 92.9636 24.2109C91.9966 25.126 91.9611 26.511 92.8735 27.4753C93.3187 27.9478 93.8678 28.1882 94.5343 28.1855L94.5152 28.9531C93.6957 28.9859 92.9172 28.6362 92.2889 27.9697C91.0623 26.6749 91.0924 24.82 92.3845 23.6017Z" fill="#FCB813"></path><path d="M40.5785 95.8566C40.4965 95.7392 40.4119 95.6299 40.3162 95.5234C40.2206 95.4168 40.1223 95.313 40.0185 95.212C39.9147 95.1136 39.8163 95.0289 39.7235 94.9634C39.4858 94.7967 39.2563 94.7257 39.0433 94.7448C38.8275 94.7667 38.6581 94.8596 38.5379 95.0207C38.5161 95.0481 38.4997 95.0808 38.4805 95.1163C38.4614 95.1546 38.4478 95.1928 38.4396 95.2365C37.9998 96.6379 37.8003 97.3482 37.4425 98.7878C37.0846 98.5419 36.9071 98.4163 36.5547 98.1595C36.9235 96.8237 37.1229 96.1626 37.5572 94.8623C37.6119 94.7148 37.6856 94.5782 37.784 94.4498C37.9151 94.2804 38.0735 94.1439 38.2565 94.0482C38.4396 93.9499 38.6362 93.8953 38.8411 93.8789C39.0515 93.8652 39.2645 93.8871 39.494 93.9526C39.7207 94.0182 39.9502 94.1329 40.1851 94.2968C40.4064 94.4525 40.6113 94.6274 40.8025 94.8268C40.9937 95.0262 41.1549 95.2447 41.286 95.4906C41.0811 95.7665 40.9746 95.9031 40.7697 96.1817C40.7233 96.0806 40.6604 95.9741 40.5785 95.8566Z" fill="#FCB813"></path><path d="M42.163 98.1797C42.3488 98.6769 42.4444 98.92 42.6492 99.4144C42.1302 99.5291 41.8707 99.5783 41.338 99.6739C41.1413 99.174 41.0457 98.9282 40.8682 98.4283C41.3927 98.3381 41.6522 98.2862 42.163 98.1797Z" fill="#FCB813"></path><path d="M45.6193 99.8672C45.8487 100.34 45.9689 100.572 46.2203 101.042C45.7204 101.208 45.4663 101.29 44.9527 101.438C44.7069 100.965 44.5922 100.73 44.3682 100.252C44.8735 100.108 45.1248 100.031 45.6193 99.8672Z" fill="#FCB813"></path><path d="M48.8345 99.6011C48.9629 99.4645 49.1131 99.3552 49.2852 99.276C49.4573 99.1995 49.6403 99.1504 49.837 99.1394C50.0337 99.1285 50.2386 99.1504 50.4435 99.2105C51.3176 99.4645 51.7574 99.5738 52.6452 99.7677C52.1945 101.819 51.9677 102.844 51.517 104.898C51.1291 104.81 50.9352 104.767 50.55 104.671C50.7221 103.966 50.8095 103.611 50.9871 102.906C50.3861 102.759 50.0883 102.68 49.4928 102.505C49.2633 102.439 49.0639 102.341 48.8891 102.215C48.717 102.087 48.5777 101.939 48.4766 101.773C48.3755 101.606 48.3127 101.426 48.2881 101.237C48.2635 101.049 48.2854 100.858 48.351 100.666C48.4274 100.437 48.4684 100.322 48.5449 100.093C48.6105 99.9043 48.7061 99.7404 48.8345 99.6011ZM49.2852 101.429C49.3781 101.576 49.5201 101.68 49.7141 101.737C50.2959 101.904 50.5882 101.986 51.1755 102.128C51.3476 101.423 51.4351 101.068 51.6126 100.363C51.0554 100.227 50.7767 100.15 50.2222 99.989C50.0364 99.9344 49.8698 99.9453 49.7141 100.019C49.5584 100.09 49.4573 100.21 49.4027 100.377C49.3316 100.609 49.2961 100.724 49.2224 100.956C49.1732 101.12 49.1923 101.278 49.2852 101.429Z" fill="#FCB813"></path><path d="M56.2405 104.829C58.5078 105.056 59.6524 105.086 61.9252 104.988C61.8842 104.021 61.8596 103.537 61.8186 102.565C62.1819 102.551 62.3622 102.537 62.7256 102.513C62.7911 103.48 62.8266 103.963 62.8922 104.933C63.2309 104.908 63.4003 104.898 63.7363 104.865C63.7663 105.187 63.78 105.348 63.8073 105.668C60.7505 105.944 59.2071 105.936 56.1531 105.632C55.8471 105.602 55.5985 105.482 55.4046 105.28C55.2106 105.078 55.1314 104.851 55.1615 104.605C55.2817 103.682 55.339 103.223 55.4565 102.302C55.8171 102.346 56.0001 102.368 56.3607 102.406C56.2651 103.33 56.2186 103.791 56.123 104.717C56.123 104.786 56.1585 104.821 56.2405 104.829ZM59.117 101.283C58.8657 101.502 58.7373 101.611 58.4777 101.824C58.2647 101.614 58.1581 101.51 57.9533 101.303C58.2182 101.087 58.3466 100.98 58.6034 100.762C58.8056 100.969 58.9066 101.076 59.117 101.283ZM60.4337 101.3C60.1878 101.527 60.0649 101.641 59.8163 101.865C59.595 101.666 59.4885 101.565 59.2727 101.36C59.5295 101.136 59.6551 101.021 59.9037 100.795C60.1113 100.997 60.2151 101.098 60.4337 101.3Z" fill="#FCB813"></path><path d="M63.494 104.979C63.5568 104.916 63.6415 104.881 63.7453 104.873C64.2288 104.829 64.4692 104.804 64.9527 104.744C64.8353 103.783 64.7752 103.302 64.6604 102.338C65.021 102.294 65.2013 102.269 65.5619 102.217C65.7012 103.176 65.775 103.657 65.9143 104.616C66.5398 104.523 66.8485 104.474 67.4714 104.356C67.2911 103.403 67.2036 102.925 67.0234 101.972C67.3812 101.903 67.5615 101.868 67.9194 101.791C68.1215 102.739 68.2253 103.214 68.4275 104.162C69.0448 104.031 69.3535 103.96 69.9681 103.802C69.725 102.865 69.6076 102.392 69.3672 101.453C69.7223 101.362 69.8998 101.316 70.2522 101.215C70.5145 102.146 70.6456 102.616 70.9133 103.548C71.3832 103.417 71.6181 103.346 72.0852 103.198C72.1835 103.507 72.2327 103.662 72.3311 103.968C69.6458 104.851 66.6464 105.452 63.8273 105.673C63.7207 105.681 63.6306 105.662 63.5541 105.61C63.4803 105.558 63.4366 105.49 63.4312 105.4C63.4257 105.318 63.423 105.28 63.4175 105.2C63.4011 105.116 63.4312 105.042 63.494 104.979Z" fill="#FCB813"></path><path d="M71.8569 103.349C71.9088 103.275 71.9826 103.22 72.0837 103.188C72.5508 103.04 72.783 102.964 73.2446 102.8C72.925 101.885 72.7639 101.428 72.4415 100.511C72.7884 100.388 72.9605 100.325 73.3075 100.194C73.6517 101.101 73.8238 101.554 74.1679 102.461C74.7662 102.234 75.0612 102.114 75.6513 101.863C75.2716 100.97 75.0803 100.524 74.7006 99.631C75.0421 99.4835 75.2115 99.4097 75.5502 99.2567C75.9545 100.139 76.1539 100.579 76.5582 101.461C77.0991 101.215 77.3668 101.087 77.8995 100.819C77.9732 100.784 77.9951 100.732 77.965 100.672C77.5443 99.8413 77.334 99.4288 76.916 98.5984C77.2466 98.4318 77.4159 98.3444 77.7438 98.1641C78.1836 98.9836 78.4048 99.3906 78.8474 100.21C78.9676 100.429 78.973 100.669 78.861 100.931C78.7518 101.191 78.5496 101.398 78.2628 101.54C75.9545 102.701 74.758 103.182 72.3295 103.953C72.2257 103.985 72.1328 103.985 72.0481 103.95C71.9635 103.917 71.9088 103.857 71.8842 103.772C71.8597 103.696 71.8487 103.655 71.8241 103.578C71.7941 103.505 71.805 103.423 71.8569 103.349Z" fill="#FCB813"></path><path d="M78.6996 94.5698C78.2188 94.8785 77.9757 95.026 77.4867 95.3101C77.3938 95.1489 77.3474 95.067 77.2545 94.9085C77.361 94.8457 77.4157 94.8129 77.5222 94.7501C77.2846 94.6954 77.1152 94.5862 77.0196 94.425C76.9677 94.3376 76.9622 94.2365 77.0005 94.1245C77.0387 94.0125 77.1207 93.9196 77.2381 93.8459C77.4594 93.712 77.7244 93.6437 78.0385 93.6328C78.0385 93.6984 78.033 93.7612 78.0276 93.8213C78.0194 93.8814 78.0167 93.9442 78.0139 94.0098C77.9593 94.0043 77.891 94.007 77.809 94.018C77.7244 94.0289 77.6479 94.059 77.5741 94.1054C77.473 94.1682 77.4403 94.2311 77.4785 94.2939C77.514 94.3512 77.5878 94.395 77.7052 94.4223C77.8227 94.4496 77.9538 94.4441 78.0959 94.4004C78.2379 94.3103 78.3117 94.2666 78.451 94.1764C78.5493 94.3349 78.6012 94.4141 78.6996 94.5698ZM81.0489 99.0607C81.3903 98.8476 81.5597 98.7384 81.8984 98.5171C82.0787 98.7848 82.1634 98.9241 82.3437 99.1918C81.6553 99.6453 81.3084 99.8638 80.6008 100.279C79.4945 98.3996 78.94 97.4599 77.8336 95.5778C78.1396 95.3975 78.2898 95.3046 78.5903 95.1189C79.571 96.6923 80.0654 97.4818 81.0489 99.0607Z" fill="#FCB813"></path><path d="M81.7071 98.7357C81.7372 98.6483 81.7973 98.5746 81.8874 98.5145C82.3928 98.1812 82.6441 98.0091 83.1385 97.654C82.5731 96.8645 82.2944 96.4712 81.729 95.6817C82.0404 95.4604 82.1934 95.3484 82.4993 95.1135C83.2779 96.1434 83.6685 96.6596 84.447 97.6922C83.6166 98.3205 83.1932 98.6183 82.3354 99.1865C82.2425 99.2493 82.1497 99.2739 82.0568 99.2684C81.9639 99.2602 81.8956 99.2165 81.8464 99.1455C81.8027 99.0772 81.7809 99.0444 81.7372 98.9761C81.688 98.9051 81.6798 98.8232 81.7071 98.7357ZM80.9586 94.6327C80.8821 94.966 80.8384 95.1354 80.7538 95.4686C80.4478 95.4386 80.3003 95.4222 79.9971 95.3812C80.0872 95.0425 80.1282 94.8758 80.2101 94.5426C80.5079 94.5808 80.6581 94.5999 80.9586 94.6327ZM82.0677 93.805C82.0021 94.1437 81.9666 94.3131 81.8901 94.6491C81.5842 94.63 81.4339 94.6191 81.128 94.5945C81.2045 94.253 81.2427 94.0837 81.3138 93.7422C81.6142 93.7722 81.7645 93.7832 82.0677 93.805Z" fill="#FCB813"></path></g></g><defs><filter id="filter0_d_258_158206" x="0.791394" y="0.355469" width="118.417" height="118.417" filterUnits="userSpaceOnUse" color-interpolation-filters="sRGB"><feFlood flood-opacity="0" result="BackgroundImageFix"></feFlood><feColorMatrix in="SourceAlpha" type="matrix" values="0 0 0 0 0 0 0 0 0 0 0 0 0 0 0 0 0 0 127 0" result="hardAlpha"></feColorMatrix><feOffset dy="3.20861"></feOffset><feGaussianBlur stdDeviation="1.6043"></feGaussianBlur><feComposite in2="hardAlpha" operator="out"></feComposite><feColorMatrix type="matrix" values="0 0 0 0 0 0 0 0 0 0 0 0 0 0 0 0 0 0 0.12 0"></feColorMatrix><feBlend mode="normal" in2="BackgroundImageFix" result="effect1_dropShadow_258_158206"></feBlend><feBlend mode="normal" in="SourceGraphic" in2="effect1_dropShadow_258_158206" result="shape"></feBlend></filter><clipPath id="clip0_258_158206"><rect x="4" y="0.355469" width="112" height="112" rx="56" fill="white"></rect></clipPath></defs></svg>